<svg width="95" height="24" viewBox="0 0 95 24" fill="none" xmlns="http://www.w3.org/2000/svg">
<path d="M42.7064 14.4285L48.6473 22.5446H53.1645L45.9672 12.8791C45.5769 12.3438 45.4096 11.9481 45.4096 11.5558C45.4096 11.1634 45.6622 10.7944 46.1345 10.259L53.0267 2.39566H48.4801L42.6211 9.10199C41.729 10.1427 41.3089 10.8775 41.3089 11.5824C41.3089 12.4834 41.8109 13.2149 42.7032 14.4285M74.084 12.5133C74.084 6.65154 78.1287 2 84.155 2C90.1811 2 94.3637 6.39552 94.3637 12.5133C94.3637 18.6312 90.0696 22.9402 84.1845 22.9402C77.8795 22.9402 74.0872 18.4882 74.0872 12.5133H74.084ZM90.4567 12.4867C90.4567 8.37384 87.9734 5.32823 84.1813 5.32823C80.389 5.32823 77.9877 8.31732 77.9877 12.4867C77.9877 16.6562 80.553 19.6718 84.1813 19.6718C88.0029 19.6718 90.4567 16.573 90.4567 12.4867ZM63.1208 22.5479H56.0645V19.2231H63.8195C66.0501 19.2231 67.195 18.6312 67.195 17.0518C67.195 15.6421 66.3027 15.1932 63.8751 14.5149L61.5592 13.8666C57.2356 12.6563 55.7856 11.2466 55.7856 7.92164C55.7856 4.59675 57.7374 2.39899 62.4515 2.39899H69.5077V5.78041H62.3957C60.4143 5.78041 59.4401 6.23259 59.4401 7.66895C59.4401 9.02219 60.3322 9.67054 62.6188 10.2624L65.0168 10.8808C69.032 11.9248 70.9314 13.3878 70.9314 16.6595C70.9314 20.4365 68.8681 22.5479 63.1208 22.5479ZM28.338 23C23.2337 23 20.1665 20.2404 20.1665 14.8275V2.42226H23.9062V14.5947C23.9062 17.524 24.828 19.6686 28.3414 19.6686C31.8548 19.6686 32.7766 17.6669 32.7766 14.5681V2.39566H36.5129V14.7975C36.5129 20.1506 33.4457 22.9968 28.3414 22.9968" fill="#1E1E1E"/>
<path d="M7.66068 0.821442V2.42858M7.66068 23.8036V22.625M2.46425 23.8036V22.625M2.46425 0.821442V2.42858M7.66068 2.42858L2.46425 7.94644M7.66068 2.42858V7.94644M7.66068 2.42858H2.46425M7.66068 2.42858H0.642822H2.46425M7.66068 2.42858H9.42854M2.46425 7.94644V13.1161M2.46425 7.94644L7.66068 13.1161M2.46425 7.94644H7.66068M2.46425 7.94644V2.42858M2.46425 7.94644H0.642822M7.66068 13.1161L2.46425 18.125M7.66068 13.1161V18.125M7.66068 13.1161H2.46425M7.66068 13.1161V7.94644M7.66068 13.1161H9.42854M2.46425 18.125V22.625M2.46425 18.125H7.66068M2.46425 18.125V13.1161M2.46425 18.125H0.642822M2.46425 18.125L7.66068 22.625M7.66068 22.625H2.46425M7.66068 22.625V18.125M7.66068 22.625H9.42854M2.46425 22.625L7.66068 18.125M2.46425 22.625H0.642822M7.66068 18.125L2.46425 13.1161M7.66068 18.125H9.42854M2.46425 13.1161L7.66068 7.94644M2.46425 13.1161H0.642822M7.66068 7.94644L2.46425 2.42858M7.66068 7.94644H9.42854" stroke="#FD1669" stroke-width="0.321429" stroke-linecap="round"/>
<path d="M14.7322 23.75V22.5714M9.53579 23.75V22.5714M9.53579 18.0714V22.5714M9.53579 18.0714H14.7322M9.53579 18.0714H7.71436M9.53579 18.0714L14.7322 22.5714M9.53579 18.0714V16.9464M14.7322 22.5714H9.53579M14.7322 22.5714V18.0714M14.7322 22.5714H16.5001M9.53579 22.5714L14.7322 18.0714M9.53579 22.5714H7.71436M14.7322 18.0714H16.5001M14.7322 18.0714V16.9464" stroke="#FD1669" stroke-width="0.321429" stroke-linecap="round"/>
</svg>
